<svg width="14" height="14" viewBox="0 0 14 14" fill="none" xmlns="http://www.w3.org/2000/svg">
<path d="M5.90329 12.4536C6.64331 13.1992 7.34993 13.1936 8.09551 12.4536L8.93011 11.619C9.00801 11.5411 9.07478 11.5188 9.17493 11.5188H10.3545C11.4061 11.5188 11.9069 11.0181 11.9069 9.96648V8.78691C11.9069 8.68676 11.9347 8.61443 12.007 8.5421L12.8416 7.70193C13.5872 6.96192 13.5816 6.25529 12.8416 5.51528L12.007 4.68068C11.9347 4.60278 11.9069 4.53601 11.9069 4.43586V3.25629C11.9069 2.2047 11.4061 1.70394 10.3545 1.70394H9.17493C9.07478 1.70394 9.00244 1.67612 8.93011 1.60378L8.09551 0.769182C7.34993 0.0236056 6.64331 0.0236056 5.90329 0.774746L5.06869 1.60378C4.99636 1.67612 4.92403 1.70394 4.82388 1.70394H3.64431C2.59271 1.70394 2.09195 2.19357 2.09195 3.25629V4.43586C2.09195 4.53601 2.06413 4.60835 1.9918 4.68068L1.1572 5.51528C0.411619 6.25529 0.417183 6.96192 1.1572 7.70193L1.9918 8.5421C2.06413 8.61443 2.09195 8.68676 2.09195 8.78691V9.96648C2.09195 11.0181 2.59271 11.5188 3.64431 11.5188H4.82388C4.92403 11.5188 4.9908 11.5411 5.06869 11.619L5.90329 12.4536ZM6.07578 9.46016C5.88104 9.46016 5.72524 9.38783 5.60284 9.25986L3.82235 7.26794C3.72777 7.16779 3.67769 7.02869 3.67769 6.88959C3.67769 6.55575 3.91694 6.3165 4.26191 6.3165C4.45109 6.3165 4.59019 6.3777 4.7126 6.51124L6.05352 8.00795L8.73537 4.17992C8.86891 3.99074 9.01357 3.91285 9.23613 3.91285C9.5811 3.91285 9.82592 4.1521 9.82592 4.47481C9.82592 4.58609 9.78141 4.72519 9.69795 4.84203L6.57654 9.22091C6.44857 9.38783 6.28165 9.46016 6.07578 9.46016Z" fill="#1054DE"/>
</svg>
