<svg width="28" height="28" viewBox="0 0 28 28" fill="none" xmlns="http://www.w3.org/2000/svg">
<path d="M13.3087 0.286139L9.55116 3.9821C9.16329 4.36362 9.16329 4.95974 9.55116 5.34127L10.2299 6.00891C10.6178 6.39045 11.2239 6.39045 11.6118 6.00891L14.0118 3.64828L16.4118 6.00891C16.7996 6.39045 17.4057 6.39045 17.7936 6.00891L18.4724 5.34127C18.8602 4.95974 18.8602 4.36362 18.4724 3.9821L14.6906 0.286139C14.3027 -0.0953798 13.6966 -0.0953798 13.3087 0.286139Z" fill="#03A67A"/>
<path d="M24.9696 14.45C24.5818 14.0685 24.5818 13.4724 24.9696 13.0909L25.6483 12.4232C26.0364 12.0417 26.6423 12.0417 27.0304 12.4232L27.7091 13.0909C28.0969 13.4724 28.0969 14.0685 27.7091 14.45L27.0304 15.1177C26.6423 15.4992 26.0364 15.4992 25.6483 15.1177L24.9696 14.45Z" fill="#03A67A"/>
<path d="M0.290908 20.5067C-0.0969694 20.1252 -0.0969694 19.529 0.290908 19.1475L0.969694 18.4799C1.35757 18.0983 1.96363 18.0983 2.35151 18.4799L3.0303 19.1475C3.41817 19.529 3.41817 20.1252 3.0303 20.5067L2.35151 21.1743C1.96363 21.5559 1.35757 21.5559 0.969694 21.1743L0.290908 20.5067Z" fill="#03A67A"/>
<path d="M18.7875 8.3696C18.3996 7.98809 18.3996 7.39197 18.7875 7.01045L19.4663 6.34279C19.8542 5.96126 20.4602 5.96126 20.8481 6.34279L21.5269 7.01045C21.9148 7.39197 21.9148 7.98809 21.5269 8.3696L20.8481 9.06111C20.4602 9.44262 19.8542 9.44262 19.4663 9.06111L18.7875 8.3696Z" fill="#03A67A"/>
<path d="M0.969619 25.9195C0.581742 25.5379 0.581742 24.9418 0.969619 24.5604L4.0484 21.532C4.43627 21.1505 5.04233 21.1505 5.43022 21.532L6.10899 22.1996C6.49688 22.5812 6.49688 23.1774 6.10899 23.5588L3.03023 26.5872C2.64233 26.9686 2.03628 26.9686 1.6484 26.5872L0.969619 25.9195Z" fill="#03A67A"/>
<path d="M21.891 11.3979C21.5031 11.0164 21.5031 10.4203 21.891 10.0388L22.5698 9.37111C22.9577 8.98958 23.5638 8.98958 23.9516 9.37111L24.6303 10.0388C25.0184 10.4203 25.0184 11.0164 24.6303 11.3979L23.9516 12.0656C23.5638 12.4471 22.9577 12.4471 22.5698 12.0656L21.891 11.3979Z" fill="#03A67A"/>
<path d="M6.10926 26.9208C5.72139 26.5394 5.72139 25.9433 6.10926 25.5617L10.2305 21.5081C10.6183 21.1265 11.2244 21.1265 11.6123 21.5081L12.2911 22.1757C12.6789 22.5572 12.6789 23.1534 12.2911 23.5349L8.16988 27.5884C7.78198 27.9701 7.17592 27.9701 6.78805 27.5884L6.10926 26.9208Z" fill="#03A67A"/>
<path d="M8.50906 21.1982C8.12119 21.5797 7.51513 21.5797 7.12726 21.1982L0.290908 14.45C-0.0969694 14.0685 -0.0969694 13.4724 0.290908 13.0909L0.969694 12.4232C1.35757 12.0417 1.96363 12.0417 2.35151 12.4232L9.21209 19.1713C9.59996 19.5529 9.59996 20.149 9.21209 20.5305L8.50906 21.1982Z" fill="#04BE8C"/>
<path d="M21.1877 27.5885C20.7998 27.9702 20.1937 27.9702 19.8058 27.5885L3.36953 11.3979C2.98164 11.0164 2.98164 10.4203 3.36953 10.0388L4.04832 9.37109C4.43619 8.98958 5.04225 8.98958 5.43012 9.37109L21.8907 25.5617C22.2786 25.9434 22.2786 26.5394 21.8907 26.9209L21.1877 27.5885Z" fill="#04BE8C"/>
<path d="M26.3515 26.5872C25.9637 26.9686 25.3577 26.9686 24.9697 26.5872L6.44862 8.3696C6.06075 7.98809 6.06075 7.39197 6.44862 7.01045L7.12741 6.34279C7.51528 5.96126 8.12134 5.96126 8.50921 6.34279L27.0303 24.5604C27.4183 24.9418 27.4183 25.5379 27.0303 25.9195L26.3515 26.5872Z" fill="#04BE8C"/>
<path d="M27.0302 21.1982C26.6424 21.5797 26.0362 21.5797 25.6484 21.1982L12.6303 8.3696C12.2424 7.98809 12.2424 7.39197 12.6303 7.01045L13.309 6.34279C13.6969 5.96126 14.303 5.96126 14.6909 6.34279L27.709 19.1475C28.097 19.529 28.097 20.1252 27.709 20.5067L27.0302 21.1982Z" fill="#04BE8C"/>
</svg>